<svg width="120" height="119" viewBox="0 0 120 119" fill="none" xmlns="http://www.w3.org/2000/svg">
<rect width="120" height="119" rx="6" fill="#E8FFC3"/>
<path d="M44.4778 20.2H58.8778V97H44.4778V65.8H35.4538V97H21.0538V20.2H35.4538V51.4H44.4778V20.2ZM80.8518 19.24C92.4678 19.24 98.8998 25.672 98.8998 41.128V76.072C98.8998 91.528 92.4678 97.96 80.8518 97.96C69.2358 97.96 62.8038 91.528 62.8038 76.072V41.128C62.8038 25.672 69.2358 19.24 80.8518 19.24ZM84.4998 75.112V42.088C84.4998 35.56 84.0198 33.64 80.8518 33.64C77.6838 33.64 77.2038 35.56 77.2038 42.088V75.112C77.2038 81.64 77.6838 83.56 80.8518 83.56C84.0198 83.56 84.4998 81.64 84.4998 75.112Z" fill="black"/>
</svg>
